<?xml version="1.0" encoding="UTF-8" standalone="no"?>
<!-- Created with Inkscape (http://www.inkscape.org/) -->

<svg
   xmlns:dc="http://purl.org/dc/elements/1.1/"
   xmlns:cc="http://creativecommons.org/ns#"
   xmlns:rdf="http://www.w3.org/1999/02/22-rdf-syntax-ns#"
   xmlns:svg="http://www.w3.org/2000/svg"
   xmlns="http://www.w3.org/2000/svg"
   xmlns:sodipodi="http://sodipodi.sourceforge.net/DTD/sodipodi-0.dtd"
   xmlns:inkscape="http://www.inkscape.org/namespaces/inkscape"
   width="90"
   height="90.162987"
   viewBox="0 0 23.812501 23.856919"
   version="1.1"
   id="svg8"
   inkscape:version="0.92.3 (2405546, 2018-03-11)"
   sodipodi:docname="favicon.svg">
  <defs
     id="defs2" />
  <sodipodi:namedview
     id="base"
     pagecolor="#ffffff"
     bordercolor="#666666"
     borderopacity="1.0"
     inkscape:pageopacity="0.0"
     inkscape:pageshadow="2"
     inkscape:zoom="2.8"
     inkscape:cx="161.42253"
     inkscape:cy="-8.6344902"
     inkscape:document-units="mm"
     inkscape:current-layer="layer1"
     showgrid="false"
     fit-margin-top="20"
     fit-margin-left="20"
     fit-margin-right="20"
     fit-margin-bottom="20"
     inkscape:window-width="1920"
     inkscape:window-height="1025"
     inkscape:window-x="0"
     inkscape:window-y="27"
     inkscape:window-maximized="1"
     viewbox-height="23.02"
     units="px" />
  <metadata
     id="metadata5">
    <rdf:RDF>
      <cc:Work
         rdf:about="">
        <dc:format>image/svg+xml</dc:format>
        <dc:type
           rdf:resource="http://purl.org/dc/dcmitype/StillImage" />
        <dc:title></dc:title>
      </cc:Work>
    </rdf:RDF>
  </metadata>
  <g
     inkscape:label="Layer 1"
     inkscape:groupmode="layer"
     id="layer1"
     transform="translate(-54.130784,-140.68974)">
    <path
       inkscape:connector-curvature="0"
       id="path884"
       style="font-style:normal;font-variant:normal;font-weight:bold;font-stretch:normal;font-size:medium;line-height:1.25;font-family:Ranga;-inkscape-font-specification:'Ranga Bold';letter-spacing:0px;word-spacing:0px;fill:#000000;fill-opacity:1;stroke:none;stroke-width:0.53173059"
       d="m 63.779544,146.38444 q 0.107401,-0.40275 0.545955,-0.40275 h 1.557313 q 0.223752,0 0.322203,0.17005 0.09845,0.17005 0.04475,0.40275 l -1.217211,4.77934 3.696383,-5.11049 q 0.0716,-0.0895 0.107401,-0.1253 0.04475,-0.0447 0.152151,-0.0805 0.116351,-0.0358 0.286403,-0.0358 h 1.798966 q 0.313252,0 0.366953,0.2148 0.06265,0.2148 -0.152151,0.4654 0,0 -4.43924,5.8444 l 1.530464,6.20241 q 0.170051,0.54595 -0.420654,0.54595 h -1.449913 q -0.554905,0 -0.680206,-0.45645 l -1.297762,-5.5043 -1.414112,5.558 q -0.107401,0.40275 -0.554905,0.40275 h -1.557314 q -0.223752,0 -0.322203,-0.1611 -0.09845,-0.17005 -0.04475,-0.40275 z" />
  </g>
</svg>
