<?xml version="1.0" encoding="UTF-8" standalone="no"?>
<!-- Created with Inkscape (http://www.inkscape.org/) -->

<svg
   xmlns:dc="http://purl.org/dc/elements/1.1/"
   xmlns:cc="http://creativecommons.org/ns#"
   xmlns:rdf="http://www.w3.org/1999/02/22-rdf-syntax-ns#"
   xmlns:svg="http://www.w3.org/2000/svg"
   xmlns="http://www.w3.org/2000/svg"
   xmlns:sodipodi="http://sodipodi.sourceforge.net/DTD/sodipodi-0.dtd"
   xmlns:inkscape="http://www.inkscape.org/namespaces/inkscape"
   width="308"
   height="87"
   viewBox="0 0 81.491669 23.02"
   version="1.1"
   id="svg8"
   inkscape:version="0.92.3 (2405546, 2018-03-11)"
   sodipodi:docname="logo.svg"
   inkscape:export-filename="/home/koen/projects/website/source/favicon.png"
   inkscape:export-xdpi="34.071632"
   inkscape:export-ydpi="34.071632">
  <defs
     id="defs2" />
  <sodipodi:namedview
     id="base"
     pagecolor="#ffffff"
     bordercolor="#666666"
     borderopacity="1.0"
     inkscape:pageopacity="0.0"
     inkscape:pageshadow="2"
     inkscape:zoom="2.8"
     inkscape:cx="161.42253"
     inkscape:cy="-8.6344902"
     inkscape:document-units="mm"
     inkscape:current-layer="layer1"
     showgrid="false"
     fit-margin-top="0"
     fit-margin-left="0"
     fit-margin-right="0"
     fit-margin-bottom="0"
     inkscape:window-width="1920"
     inkscape:window-height="1025"
     inkscape:window-x="0"
     inkscape:window-y="27"
     inkscape:window-maximized="1"
     viewbox-height="23.02"
     units="px" />
  <metadata
     id="metadata5">
    <rdf:RDF>
      <cc:Work
         rdf:about="">
        <dc:format>image/svg+xml</dc:format>
        <dc:type
           rdf:resource="http://purl.org/dc/dcmitype/StillImage" />
        <dc:title></dc:title>
      </cc:Work>
    </rdf:RDF>
  </metadata>
  <g
     inkscape:label="Layer 1"
     inkscape:groupmode="layer"
     id="layer1"
     transform="translate(-54.504162,-141.10371)">
    <path
       inkscape:connector-curvature="0"
       id="path884"
       style="font-style:normal;font-variant:normal;font-weight:bold;font-stretch:normal;font-size:medium;line-height:1.25;font-family:Ranga;-inkscape-font-specification:'Ranga Bold';letter-spacing:0px;word-spacing:0px;fill:#000000;fill-opacity:1;stroke:none;stroke-width:0.53173059"
       d="m 62.580958,146.38444 q 0.107401,-0.40275 0.545955,-0.40275 h 1.557313 q 0.223752,0 0.322203,0.17005 0.09845,0.17005 0.04475,0.40275 l -1.217211,4.77934 3.696383,-5.11049 q 0.0716,-0.0895 0.107401,-0.1253 0.04475,-0.0447 0.152151,-0.0805 0.116351,-0.0358 0.286403,-0.0358 h 1.798966 q 0.313252,0 0.366953,0.2148 0.06265,0.2148 -0.152151,0.4654 0,0 -4.43924,5.8444 l 1.530464,6.20241 q 0.170051,0.54595 -0.420654,0.54595 h -1.449913 q -0.554905,0 -0.680206,-0.45645 l -1.297762,-5.5043 -1.414112,5.558 q -0.107401,0.40275 -0.554905,0.40275 h -1.557314 q -0.223752,0 -0.322203,-0.1611 -0.09845,-0.17005 -0.04475,-0.40275 z" />
    <path
       inkscape:connector-curvature="0"
       id="path886"
       style="font-style:normal;font-variant:normal;font-weight:bold;font-stretch:normal;font-size:medium;line-height:1.25;font-family:Ranga;-inkscape-font-specification:'Ranga Bold';letter-spacing:0px;word-spacing:0px;fill:#000000;fill-opacity:1;stroke:none;stroke-width:0.53173059"
       d="m 72.47999,156.28323 q 0.286403,-0.54596 0.510155,-1.19931 0.223752,-0.65336 0.295352,-1.02031 0.09845,-0.32221 0.179002,-0.92186 0.08055,-0.59966 0,-1.19931 -0.08055,-0.60861 -0.420654,-0.60861 -0.375903,0 -0.662306,0.38486 -0.286402,0.38485 -0.581755,1.13666 -0.0089,0.0179 -0.09845,0.2506 -0.0895,0.2327 -0.170051,0.43855 -0.0716,0.20586 -0.187952,0.55491 -0.107401,0.34905 -0.187952,0.65335 -0.0716,0.29536 -0.125301,0.65336 -0.0537,0.358 -0.0537,0.64441 0,0.6086 0.08055,0.85025 0.0895,0.24166 0.411703,0.30431 0.313253,-0.0448 0.528055,-0.23271 0.214802,-0.18795 0.483304,-0.68915 z m -2.658173,-4.56454 q 0.474354,-1.08296 1.333561,-1.79897 0.868158,-0.72496 2.058519,-0.72496 0.689156,0 1.19931,0.25956 0.519105,0.25955 0.868158,0.96661 0.152151,0.2864 0.223752,0.70705 0.08055,0.41171 0.08055,0.65336 0.0089,0.24165 0.0089,0.8234 0,1.13666 -0.358003,2.34493 -0.358003,1.20826 -0.957659,2.21962 -0.617555,1.02925 -1.378312,1.62891 -0.751807,0.59966 -1.557314,0.59966 -0.590705,0 -0.993459,-0.13426 -0.402753,-0.1253 -0.823407,-0.5728 -0.411704,-0.43855 -0.608605,-1.15456 -0.196902,-0.72496 -0.196902,-1.48571 0,-2.00482 1.10086,-4.33184 z" />
    <path
       inkscape:connector-curvature="0"
       id="path888"
       style="font-style:normal;font-variant:normal;font-weight:bold;font-stretch:normal;font-size:medium;line-height:1.25;font-family:Ranga;-inkscape-font-specification:'Ranga Bold';letter-spacing:0px;word-spacing:0px;fill:#000000;fill-opacity:1;stroke:none;stroke-width:0.53173059"
       d="m 78.495353,154.56481 q 0.635456,-0.40275 1.09191,-1.27091 0.465404,-0.86816 0.465404,-1.59311 0,-0.28641 -0.0537,-0.38486 -0.04475,-0.1074 -0.179001,-0.1074 -0.134251,0 -0.313253,0.2864 -0.170052,0.28641 -0.277453,0.57281 -0.358003,0.93081 -0.733907,2.49707 z m -0.429604,1.99587 q -0.08055,0.42065 -0.04475,0.54595 0.04475,0.11636 0.259552,0.18796 0.304303,-0.0626 1.226161,-1.04716 0.0716,-0.0716 0.179002,-0.0806 0.1074,-0.009 0.187951,0.0448 l 0.895008,0.54595 q 0.107401,0.0627 0.152151,0.1969 0.0537,0.13425 0.009,0.21481 -0.322203,0.6265 -1.485714,1.57521 -1.16351,0.94871 -1.611014,0.85921 -1.754216,-0.38486 -1.995868,-1.50362 -0.161101,-0.7876 0.116351,-2.39862 0.277453,-1.61101 0.859208,-3.17728 0.590705,-1.56626 1.208261,-2.13906 0.411703,-0.39381 0.859207,-0.63546 0.456454,-0.2506 0.939759,-0.31325 0.492254,-0.0716 0.930808,0.1253 1.279861,0.54595 1.279861,1.88846 0,0.91291 -0.572805,1.97797 -0.572805,1.05611 -1.494663,1.91532 -0.921858,0.85026 -1.897417,1.21721 z" />
    <path
       inkscape:connector-curvature="0"
       id="path890"
       style="font-style:normal;font-variant:normal;font-weight:bold;font-stretch:normal;font-size:medium;line-height:1.25;font-family:Ranga;-inkscape-font-specification:'Ranga Bold';letter-spacing:0px;word-spacing:0px;fill:#000000;fill-opacity:1;stroke:none;stroke-width:0.53173059"
       d="m 85.391038,152.06774 1.342512,-1.87057 q 0.322203,-0.4296 0.635456,-0.63545 0.322203,-0.20585 0.742856,-0.20585 h 0.895008 q 0.420654,0 0.680206,0.25955 0.259553,0.25955 0.0895,0.91291 l -2.23752,8.46677 q -0.08055,0.27745 -0.456454,0.27745 l -1.485713,-0.0179 q -0.09845,0 -0.179002,-0.1074 -0.0716,-0.11635 -0.0089,-0.33115 l 1.13666,-4.17969 q 0.0179,-0.0806 0.06265,-0.2327 0.0537,-0.1611 0.08055,-0.2685 0.0358,-0.1074 0.0716,-0.25955 0.04475,-0.15216 0.0537,-0.25061 0.0179,-0.0984 0.02685,-0.18795 0.0089,-0.0984 -0.0179,-0.1432 -0.0179,-0.0537 -0.0716,-0.0537 -0.0537,0 -0.107401,0.0358 -0.04475,0.0358 -0.116351,0.1253 -0.06265,0.0895 -0.107401,0.1611 -0.04475,0.0716 -0.134251,0.22376 -0.0895,0.15215 -0.143201,0.24165 -0.501205,0.81445 -1.449913,2.68502 -0.939758,1.87057 -1.16351,2.19277 -0.259553,0.34905 -0.572805,0.34905 h -1.11876 q -0.161102,0 -0.250603,-0.13425 -0.09845,-0.1432 -0.04475,-0.3401 l 2.389671,-8.91428 q 0.116351,-0.51015 0.545955,-0.51015 h 1.172461 q 0.349053,0 0.456454,0.13425 0.107401,0.1253 0,0.43855 z" />
    <path
       inkscape:connector-curvature="0"
       id="path892"
       style="font-style:normal;font-variant:normal;font-weight:bold;font-stretch:normal;font-size:medium;line-height:1.25;font-family:Ranga;-inkscape-font-specification:'Ranga Bold';letter-spacing:0px;word-spacing:0px;fill:#000000;fill-opacity:1;stroke:none;stroke-width:0.53173059"
       d="m 96.15753,146.38444 q 0.107401,-0.40275 0.545955,-0.40275 h 1.557314 q 0.223752,0 0.322203,0.17005 0.09845,0.17005 0.04475,0.40275 l -1.217211,4.77934 3.696379,-5.11049 q 0.0716,-0.0895 0.10741,-0.1253 0.0447,-0.0447 0.15215,-0.0805 0.11635,-0.0358 0.2864,-0.0358 h 1.79897 q 0.31325,0 0.36695,0.2148 0.0627,0.2148 -0.15215,0.4654 0,0 -4.439242,5.8444 l 1.530462,6.20241 q 0.17005,0.54595 -0.42065,0.54595 h -1.449916 q -0.554904,0 -0.680206,-0.45645 l -1.297761,-5.5043 -1.414113,5.558 q -0.107401,0.40275 -0.554905,0.40275 h -1.557313 q -0.223752,0 -0.322203,-0.1611 -0.09845,-0.17005 -0.04475,-0.40275 z" />
    <path
       inkscape:connector-curvature="0"
       id="path894"
       style="font-style:normal;font-variant:normal;font-weight:bold;font-stretch:normal;font-size:medium;line-height:1.25;font-family:Ranga;-inkscape-font-specification:'Ranga Bold';letter-spacing:0px;word-spacing:0px;fill:#000000;fill-opacity:1;stroke:none;stroke-width:0.53173059"
       d="m 104.96465,146.90354 q 0,-0.537 0.38485,-0.9129 0.38486,-0.37591 0.96661,-0.37591 h 0.25956 q 0.4475,0 0.83235,0.40276 0.39381,0.3938 0.39381,0.88605 0,0.53701 -0.40276,0.90396 -0.3938,0.35801 -0.98451,0.35801 h -0.24165 q -0.4833,0 -0.85026,-0.37591 -0.358,-0.38485 -0.358,-0.88606 z m 1.97797,2.87298 q 0,0 -2.38072,9.07538 -0.1074,0.40275 -0.55491,0.40275 h -1.48571 q -0.50121,0 -0.40275,-0.42065 l 2.38967,-9.07538 q 0.1074,-0.40275 0.54595,-0.40275 h 1.48572 q 0.5012,0 0.40275,0.42065 z" />
    <path
       inkscape:connector-curvature="0"
       id="path896"
       style="font-style:normal;font-variant:normal;font-weight:bold;font-stretch:normal;font-size:medium;line-height:1.25;font-family:Ranga;-inkscape-font-specification:'Ranga Bold';letter-spacing:0px;word-spacing:0px;fill:#000000;fill-opacity:1;stroke:none;stroke-width:0.53173059"
       d="m 110.63764,155.82677 q 1.44991,-3.19517 2.14802,-6.19345 0.0895,-0.38485 0.5191,-0.34905 l 1.44096,0.1074 q 0.21481,0.0268 0.33116,0.1611 0.1253,0.1253 0.0626,0.29535 -1.92427,5.6654 -3.68743,8.35937 -0.34906,0.52806 -0.61756,0.78761 -0.2685,0.25955 -0.537,0.25955 l -1.28882,-0.0895 q -0.2685,-0.0448 -0.45645,-0.27745 -0.179,-0.2327 -0.1432,-0.64441 0.179,-1.82581 0.1611,-3.99173 -0.009,-2.17487 -0.179,-4.21549 -0.0895,-0.6802 0.43855,-0.6802 h 1.41411 q 0.21481,0 0.31326,0.0984 0.0984,0.0985 0.1253,0.3222 0.25955,2.79242 -0.0447,6.05025 z" />
    <path
       inkscape:connector-curvature="0"
       id="path898"
       style="font-style:normal;font-variant:normal;font-weight:bold;font-stretch:normal;font-size:medium;line-height:1.25;font-family:Ranga;-inkscape-font-specification:'Ranga Bold';letter-spacing:0px;word-spacing:0px;fill:#000000;fill-opacity:1;stroke:none;stroke-width:0.53173059"
       d="m 117.48802,146.90354 q 0,-0.537 0.38485,-0.9129 0.38485,-0.37591 0.96661,-0.37591 h 0.25955 q 0.4475,0 0.83236,0.40276 0.3938,0.3938 0.3938,0.88605 0,0.53701 -0.40275,0.90396 -0.39381,0.35801 -0.98451,0.35801 h -0.24165 q -0.48331,0 -0.85026,-0.37591 -0.358,-0.38485 -0.358,-0.88606 z m 1.97796,2.87298 q 0,0 -2.38072,9.07538 -0.1074,0.40275 -0.5549,0.40275 h -1.48572 q -0.5012,0 -0.40275,-0.42065 l 2.38967,-9.07538 q 0.1074,-0.40275 0.54596,-0.40275 h 1.48571 q 0.5012,0 0.40275,0.42065 z" />
    <path
       inkscape:connector-curvature="0"
       id="path900"
       style="font-style:normal;font-variant:normal;font-weight:bold;font-stretch:normal;font-size:medium;line-height:1.25;font-family:Ranga;-inkscape-font-specification:'Ranga Bold';letter-spacing:0px;word-spacing:0px;fill:#000000;fill-opacity:1;stroke:none;stroke-width:0.53173059"
       d="m 124.81677,147.11835 q 0,0 -0.56386,2.23752 h 0.98451 q 0.2148,0 0.27745,0.0984 0.0627,0.0895 0,0.3043 l -0.31325,1.02926 q -0.11635,0.40275 -0.47435,0.40275 h -0.94871 l -1.95112,7.66127 q -0.1074,0.40275 -0.54595,0.40275 h -1.41412 q -0.29535,0 -0.4117,-0.17005 -0.11635,-0.17005 -0.0626,-0.42065 l 1.90637,-7.47332 h -0.69811 q -0.18795,0 -0.2506,-0.0895 -0.0537,-0.0985 0.009,-0.34905 l 0.29535,-1.04716 q 0.0627,-0.2148 0.15215,-0.27745 0.0984,-0.0716 0.2506,-0.0716 h 0.70706 l 0.58176,-2.25542 q 0.1074,-0.40276 0.54595,-0.40276 h 1.52151 q 0.50121,0 0.40276,0.42066 z" />
    <path
       inkscape:connector-curvature="0"
       id="path902"
       style="font-style:normal;font-variant:normal;font-weight:bold;font-stretch:normal;font-size:medium;line-height:1.25;font-family:Ranga;-inkscape-font-specification:'Ranga Bold';letter-spacing:0px;word-spacing:0px;fill:#000000;fill-opacity:1;stroke:none;stroke-width:0.53173059"
       d="m 128.28793,149.19476 q 0,0 0.31326,0 0.7518,0 1.43201,0.48331 0.68915,0.4833 1.00241,1.16351 0.0627,0.11635 0.0358,0.31325 -0.0179,0.18795 -0.1611,0.27745 l -0.89501,0.61756 q -0.31325,0.2148 -0.55491,-0.0895 -0.6086,-0.74286 -1.17246,-0.85921 -0.2327,0.11635 -0.47435,0.59966 -0.24165,0.47435 -0.24165,0.92185 -0.0179,0.25061 0.13425,0.46541 0.15215,0.2148 0.43855,0.2685 l 0.33115,0.0537 q 0.46541,0.0806 0.76076,0.2506 0.3043,0.16111 0.49226,0.57281 0.1969,0.4117 0.17005,1.06506 -0.009,0.6265 -0.25956,1.35146 -0.24165,0.71601 -0.65335,1.35146 -0.40275,0.62651 -1.02031,1.04716 -0.60861,0.41171 -1.27091,0.41171 h -0.24165 q -0.85026,0 -1.44992,-0.47436 -0.59965,-0.4833 -0.8592,-1.07401 -0.17901,-0.43855 0.0358,-0.68915 l 0.7876,-0.62651 q 0.1969,-0.179 0.38486,-0.15215 0.1969,0.0179 0.29535,0.22375 0.13425,0.2685 0.4654,0.53701 0.34011,0.25955 0.65336,0.2864 0.3401,-0.179 0.537,-0.73391 0.19691,-0.5549 0.21481,-1.09191 0,-0.3401 -0.21481,-0.5549 -0.2148,-0.22375 -0.5907,-0.27746 l -0.24165,-0.0358 q -0.68021,-0.0895 -0.97556,-0.4833 -0.2864,-0.40275 -0.2685,-1.12771 0.0268,-0.97556 0.49225,-1.90637 0.47435,-0.93976 1.17246,-1.51256 0.70706,-0.57281 1.39621,-0.57281 z" />
  </g>
</svg>
